<?xml version="1.0" standalone="no"?>
<!DOCTYPE svg PUBLIC "-//W3C//DTD SVG 1.1//EN" "http://www.w3.org/Graphics/SVG/1.1/DTD/svg11.dtd" >
<svg xmlns="http://www.w3.org/2000/svg">
<metadata></metadata>
<defs>
<font id="sofia_pro_condensedregular" horiz-adv-x="1069" >
<font-face units-per-em="2048" ascent="1536" descent="-512" />
<missing-glyph horiz-adv-x="444" />
<glyph horiz-adv-x="2048" />
<glyph horiz-adv-x="2048" />
<glyph unicode="&#xd;" horiz-adv-x="2048" />
<glyph unicode=" "  horiz-adv-x="444" />
<glyph unicode="&#x09;" horiz-adv-x="444" />
<glyph unicode="&#xa0;" horiz-adv-x="444" />
<glyph unicode="!" horiz-adv-x="468" d="M113 106q0 55 36 92.5t87 37.5q53 0 88.5 -37.5t35.5 -92.5t-35.5 -90.5t-88.5 -35.5q-52 0 -87.5 35.5t-35.5 90.5zM137 1411h193l-23 -1032h-145z" />
<glyph unicode="&#x22;" horiz-adv-x="638" d="M123 887v590h143v-590h-143zM373 887v590h143v-590h-143z" />
<glyph unicode="#" horiz-adv-x="1169" d="M61 360l39 162h183l79 371h-176l37 162h183l83 356h166l-84 -356h191l84 356h166l-84 -356h182l-41 -162h-184l-82 -371h182l-41 -162h-182l-86 -360h-164l84 360h-190l-87 -360h-161l84 360h-181zM446 522h191l82 371h-191z" />
<glyph unicode="$" horiz-adv-x="997" d="M74 406h178q2 -102 64 -176t180 -74q119 0 184.5 60.5t73.5 148.5q9 193 -213 251l-156 46q-301 90 -301 362q0 166 96.5 276t255.5 125v203h113v-207q148 -21 240 -130.5t92 -276.5h-179q0 104 -62.5 169.5t-156.5 65.5q-107 0 -164 -62t-57 -163q0 -141 174 -193 l154 -43q358 -93 342 -438q-7 -69 -34 -131t-73 -113t-117 -84t-159 -40v-228h-113v230q-86 10 -156 49.5t-114 98t-67.5 129t-24.5 145.5z" />
<glyph unicode="%" horiz-adv-x="1187" d="M61 1104q0 112 68 185t162 73q95 0 163 -73t68 -185q0 -113 -68 -185.5t-163 -72.5t-162.5 72.5t-67.5 185.5zM182 1104q0 -56 29 -91.5t80 -35.5t80.5 35.5t29.5 91.5q0 53 -29.5 88t-80.5 35t-80 -35t-29 -88zM262 0l574 1378h108l-571 -1378h-111zM666 238 q0 112 67.5 185t161.5 73q95 0 163 -73t68 -185q0 -113 -68 -185.5t-163 -72.5t-162 72.5t-67 185.5zM786 238q0 -56 29 -91.5t80 -35.5t81 36t30 91q0 53 -30 87.5t-81 34.5t-80 -34.5t-29 -87.5z" />
<glyph unicode="&#x26;" horiz-adv-x="1210" d="M84 440q0 114 62.5 219t154.5 158q-54 36 -86.5 111.5t-32.5 152.5q0 148 104 253.5t244 105.5q99 0 179.5 -48.5t124.5 -138.5l-144 -84q-28 56 -63.5 79.5t-96.5 23.5q-66 0 -115.5 -57.5t-49.5 -133.5q0 -77 47 -137.5t112 -60.5h234v186h168v-188h155v-146h-155v-295 q0 -52 3.5 -92t15.5 -81t31.5 -67.5t54 -43.5t81.5 -17h39v-159h-39q-106 0 -183.5 42.5t-109.5 118.5q-32 -74 -120 -117.5t-185 -43.5q-202 0 -316 127.5t-114 332.5zM266 440q0 -126 69.5 -208t178.5 -82q118 0 178.5 78t65.5 200v307h-191q-143 0 -222 -87t-79 -208z " />
<glyph unicode="'" horiz-adv-x="389" d="M123 887v590h143v-590h-143z" />
<glyph unicode="(" horiz-adv-x="673" d="M74 475q0 216 43 397t117.5 301.5t174.5 187t214 66.5v-135q-74 0 -145 -62t-125.5 -168.5t-88 -260.5t-33.5 -326t33.5 -326t88 -260.5t125.5 -168.5t145 -62v-135q-114 0 -214 66.5t-174.5 187t-117.5 301.5t-43 397z" />
<glyph unicode=")" horiz-adv-x="673" d="M51 -342q74 0 145 62t125.5 168.5t87.5 260.5t33 326t-33 326t-87.5 260.5t-125.5 168.5t-145 62v135q114 0 214 -66.5t174.5 -187t117.5 -301.5t43 -397t-43 -397t-117.5 -301.5t-174.5 -187t-214 -66.5v135z" />
<glyph unicode="*" horiz-adv-x="811" d="M80 1104l45 153l221 -106l-18 276h157l-20 -276l223 106l43 -153l-229 -64l151 -229l-118 -98l-123 239l-133 -243l-117 104l153 223z" />
<glyph unicode="+" horiz-adv-x="907" d="M86 442v183h276v319h183v-319h276v-183h-276v-317h-183v317h-276z" />
<glyph unicode="," horiz-adv-x="448" d="M-16 -256q75 97 116.5 223.5t38.5 268.5h189q-11 -171 -80 -321t-139 -218z" />
<glyph unicode="-" horiz-adv-x="849" d="M113 401v166h624v-166h-624z" />
<glyph unicode="." horiz-adv-x="460" d="M106 106q0 55 36 92.5t87 37.5q53 0 89 -37.5t36 -92.5t-36 -90.5t-89 -35.5q-52 0 -87.5 35.5t-35.5 90.5z" />
<glyph unicode="/" horiz-adv-x="937" d="M49 -57l688 1577h154l-688 -1577h-154z" />
<glyph unicode="0" d="M102 666q0 688 435 688q98 0 173.5 -35.5t123.5 -96.5t78.5 -150t42.5 -187.5t12 -218.5q0 -686 -430 -686q-435 0 -435 686zM281 666q0 -512 256 -512q254 0 254 512q0 514 -254 514q-256 0 -256 -514z" />
<glyph unicode="1" horiz-adv-x="606" d="M59 1018v180l387 164v-1362h-176v1104z" />
<glyph unicode="2" horiz-adv-x="925" d="M80 1004q23 159 125 254.5t241 95.5q156 0 262.5 -111t106.5 -285t-127 -346l-311 -434h452v-178h-735v80l463 659q82 114 82 219q0 96 -56.5 160t-136.5 64q-73 0 -130.5 -63t-69.5 -163z" />
<glyph unicode="3" horiz-adv-x="948" d="M61 260l146 98q18 -80 88 -144t145 -64q106 0 172 62.5t66 158.5q0 116 -62.5 188t-164.5 72h-103v162h68q53 0 93.5 16t62 38t35 52.5t17 53.5t3.5 46q0 80 -53 134.5t-134 54.5q-114 0 -190 -133l-117 106q43 87 131 141t187 54q160 0 261.5 -107.5t96.5 -249.5 q0 -83 -48 -168t-114 -114q94 -31 151.5 -134t57.5 -212q0 -171 -116 -281t-300 -110q-130 0 -231.5 81t-147.5 199z" />
<glyph unicode="4" horiz-adv-x="1026" d="M31 274l631 1061h135v-886h164v-175h-164v-274h-176v274h-590zM305 449h316v536z" />
<glyph unicode="5" horiz-adv-x="993" d="M70 268l153 97q70 -209 236 -209q133 0 205.5 78t72.5 196q0 124 -67 194t-170 70q-59 0 -112 -23.5t-134 -92.5l-135 94l98 663h627v-176h-477l-70 -401q90 100 246 100q69 0 132.5 -26t116.5 -76t85 -134.5t32 -191.5q0 -203 -126 -326.5t-324 -123.5q-134 0 -235.5 75 t-153.5 213z" />
<glyph unicode="6" horiz-adv-x="1009" d="M100 664q0 118 14.5 218.5t47 188t82.5 149t125 97t170 35.5q253 0 350 -256l-148 -82q-31 79 -82 124.5t-120 45.5q-76 0 -132 -45t-86.5 -123t-43 -172.5t-7.5 -204.5q22 90 106 150.5t187 60.5q153 0 261 -132.5t102 -311.5q-7 -180 -120.5 -303t-268.5 -123 q-95 0 -169.5 35.5t-124.5 97t-82.5 149t-46.5 187t-14 215.5zM315 434q0 -114 63.5 -197t149.5 -83q90 0 156 73.5t66 186.5q0 119 -58.5 183t-148.5 69q-86 3 -155 -62t-73 -170z" />
<glyph unicode="7" horiz-adv-x="917" d="M76 0l542 1163h-520v174h805l-622 -1337h-205z" />
<glyph unicode="8" horiz-adv-x="978" d="M88 406q0 115 61.5 214t153.5 138q-51 33 -90 107.5t-39 148.5q0 142 90.5 241t224.5 99t225 -99t91 -241q0 -74 -39 -148.5t-90 -107.5q92 -39 153.5 -138t61.5 -214q0 -199 -112.5 -312.5t-289.5 -113.5t-289 113.5t-112 312.5zM266 418q0 -119 63 -197t160 -78 t160.5 78t63.5 197q0 105 -61 182.5t-150 77.5h-25q-89 0 -150 -77.5t-61 -182.5zM352 1012q0 -69 37 -121.5t92 -52.5h17q55 0 92 52.5t37 121.5q0 82 -38.5 128t-99.5 46q-59 0 -98 -48t-39 -126z" />
<glyph unicode="9" horiz-adv-x="1009" d="M90 926q7 180 120.5 303t268.5 123q95 0 169.5 -35.5t124 -97t82 -149t46.5 -187t14 -215.5q0 -149 -23.5 -269.5t-73.5 -216.5t-136.5 -149t-204.5 -53q-253 0 -350 256l147 81q31 -79 82.5 -124.5t120.5 -45.5q76 0 132 45t86 123t42.5 172.5t7.5 204.5 q-22 -90 -106 -150.5t-187 -60.5q-153 0 -260.5 133t-101.5 312zM266 918q0 -119 58.5 -183t148.5 -69q86 -3 154.5 61.5t72.5 169.5q0 114 -63.5 197.5t-149.5 83.5q-89 0 -155 -73t-66 -187z" />
<glyph unicode=":" horiz-adv-x="473" d="M113 106q0 55 36 92.5t87 37.5q53 0 88.5 -37.5t35.5 -92.5t-35.5 -90.5t-88.5 -35.5q-52 0 -87.5 35.5t-35.5 90.5zM113 848q0 55 36 92t87 37q53 0 88.5 -37t35.5 -92t-35.5 -91t-88.5 -36q-52 0 -87.5 36t-35.5 91z" />
<glyph unicode=";" horiz-adv-x="493" d="M6 -256q75 98 117 224.5t39 267.5h188q-11 -171 -80 -321t-139 -218zM131 848q0 55 36 92t87 37q53 0 89 -37t36 -92t-36 -91t-89 -36q-52 0 -87.5 36t-35.5 91z" />
<glyph unicode="&#x3c;" horiz-adv-x="1081" d="M68 475v150l903 405v-190l-701 -289l701 -293v-186z" />
<glyph unicode="=" horiz-adv-x="1062" d="M121 240v163h821v-163h-821zM121 635v164h821v-164h-821z" />
<glyph unicode="&#x3e;" horiz-adv-x="1081" d="M111 72v186l700 293l-700 289v190l903 -405v-150z" />
<glyph unicode="?" horiz-adv-x="851" d="M70 1020q0 190 100.5 298.5t251.5 108.5q153 0 259.5 -105.5t106.5 -283.5q0 -143 -73.5 -251t-182.5 -146q-60 -20 -89 -51t-29 -98l-2 -113h-174v113q0 71 17 125.5t51 92t74.5 62t96.5 45.5q55 17 96 82.5t41 138.5q0 95 -57.5 153t-134.5 58q-76 0 -129 -60.5 t-53 -168.5h-170zM201 106q0 55 36 92.5t87 37.5q53 0 89 -37.5t36 -92.5t-36 -90.5t-89 -35.5q-52 0 -87.5 35.5t-35.5 90.5z" />
<glyph unicode="@" horiz-adv-x="1720" d="M80 528q0 105 20 206t58 189.5t90.5 166.5t119.5 139.5t143 106t163 68t178 23.5t179.5 -21.5t167.5 -63t149.5 -99t126.5 -132t97 -159.5t63 -184.5t22 -204.5q0 -62 -8.5 -126.5t-25.5 -130.5t-45.5 -123.5t-66 -103t-89.5 -71.5t-113 -26q-35 0 -66 6t-61 19.5 t-53.5 36.5t-42 54.5t-28 76t-9.5 99.5v265q0 112 -62.5 188t-152.5 76q-88 0 -150.5 -76t-62.5 -188q0 -109 62.5 -186t150.5 -77q98 0 143 37v-145q-41 -37 -143 -37q-97 0 -179.5 54.5t-131 148.5t-48.5 205t48.5 205.5t131 149t179.5 54.5q100 0 182.5 -55.5t128 -144.5 t47.5 -191v-297q0 -135 117 -135q56 0 97.5 44t63 114t31.5 140.5t10 139.5q0 153 -54 288t-144.5 229t-211 148t-249.5 54t-245.5 -59.5t-200.5 -161t-133.5 -241t-49.5 -292.5q0 -206 83.5 -377.5t228.5 -270.5t317 -99h49v-146h-49q-127 0 -245 44.5t-213 126.5t-166 192 t-109.5 246.5t-38.5 283.5z" />
<glyph unicode="A" horiz-adv-x="1130" d="M12 0l457 1411h195l454 -1411h-190l-117 358h-489l-117 -358h-193zM373 520h387l-193 658z" />
<glyph unicode="B" horiz-adv-x="1095" d="M156 0v1411h462q155 0 245.5 -98.5t90.5 -265.5q0 -95 -44.5 -181t-125.5 -121q101 -18 167.5 -121.5t66.5 -215.5q0 -111 -42 -203t-125.5 -148.5t-193.5 -56.5h-501zM340 178h289q99 0 150.5 64.5t51.5 167.5q0 60 -21 114.5t-71 94.5t-121 40h-278v-481zM340 819h250 q89 0 133.5 66t44.5 155q0 86 -48.5 140.5t-141.5 54.5h-238v-416z" />
<glyph unicode="C" horiz-adv-x="1163" d="M82 702q0 333 164 529t426 196q141 0 256.5 -63.5t197.5 -179.5l-133 -117q-132 184 -321 184q-185 0 -296.5 -147t-111.5 -402t111.5 -400.5t296.5 -145.5q189 0 321 184l133 -117q-82 -116 -197.5 -179.5t-256.5 -63.5q-262 0 -426 194.5t-164 527.5z" />
<glyph unicode="D" horiz-adv-x="1263" d="M156 0v1411h475q169 0 295 -94t190 -253.5t64 -361.5q0 -150 -37.5 -278t-106.5 -222.5t-173.5 -148t-231.5 -53.5h-475zM338 178h293q175 0 270.5 146t95.5 378q0 151 -40 269.5t-124.5 190t-201.5 71.5h-293v-1055z" />
<glyph unicode="E" horiz-adv-x="987" d="M156 0v1411h731v-176h-549v-451h479v-170h-479v-436h565v-178h-747z" />
<glyph unicode="F" horiz-adv-x="921" d="M156 0v1411h721v-176h-539v-451h434v-170h-434v-614h-182z" />
<glyph unicode="G" horiz-adv-x="1292" d="M80 702q0 167 48 304.5t132 229t197 141.5t243 50q125 0 235 -53.5t183 -150.5l-123 -136q-56 77 -135.5 117.5t-159.5 40.5q-190 0 -314 -144t-124 -399q0 -251 115 -395.5t301 -144.5q168 0 259 100.5t112 278.5h-338v166h530q0 -182 -42 -322.5t-118 -228t-178 -132 t-225 -44.5q-171 0 -307.5 91t-213.5 256t-77 375z" />
<glyph unicode="H" horiz-adv-x="1236" d="M156 0v1411h182v-627h559v627h184v-1411h-184v614h-559v-614h-182z" />
<glyph unicode="I" horiz-adv-x="493" d="M156 0v1411h182v-1411h-182z" />
<glyph unicode="J" horiz-adv-x="493" d="M-190 -453l16 168q21 -9 72 -13.5t75 -4.5q67 0 109.5 42t58 102.5t15.5 140.5v1429h182v-1429q0 -98 -18.5 -177t-60.5 -144.5t-118 -101.5t-182 -36q-85 0 -149 24z" />
<glyph unicode="K" horiz-adv-x="997" d="M156 0v1411h182v-590l379 590h207l-461 -706l557 -705h-225l-457 571v-571h-182z" />
<glyph unicode="L" horiz-adv-x="866" d="M156 0v1411h182v-1233h489v-178h-671z" />
<glyph unicode="M" horiz-adv-x="1626" d="M86 0l145 1411h168l414 -1032l412 1032h170l145 -1411h-180l-107 1038l-356 -882h-164l-362 880l-105 -1036h-180z" />
<glyph unicode="N" horiz-adv-x="1193" d="M156 0v1411h178l522 -1034v1034h182v-1411h-172l-528 1042v-1042h-182z" />
<glyph unicode="O" horiz-adv-x="1388" d="M80 702q0 162 47.5 298.5t129.5 229.5t195 145t242 52t242 -52t195.5 -145t130 -229.5t47.5 -298.5t-47.5 -298.5t-130 -229t-195.5 -143.5t-242 -51t-241.5 51t-195 143.5t-130 229t-47.5 298.5zM262 702q0 -244 122.5 -393t309.5 -149t309.5 149t122.5 393 q0 246 -122.5 395.5t-309.5 149.5t-309.5 -149.5t-122.5 -395.5z" />
<glyph unicode="P" horiz-adv-x="1060" d="M156 0v1411h479q98 0 173.5 -37.5t119.5 -101t66 -140.5t22 -163q0 -87 -22 -163.5t-66 -140t-119.5 -100.5t-173.5 -37h-295v-528h-184zM340 707h264q61 0 107 22t72 60t38.5 83t12.5 97q0 51 -12.5 96.5t-37.5 84.5t-69.5 62t-102.5 23h-272v-528z" />
<glyph unicode="Q" horiz-adv-x="1388" d="M80 702q0 162 47.5 298.5t129.5 229.5t195 145t242 52t242 -52t195.5 -145t130 -229.5t47.5 -298.5q0 -207 -75 -367t-206 -253l125 -232l-141 -77l-127 237q-89 -30 -191 -30q-129 0 -241.5 51t-195 143.5t-130 229t-47.5 298.5zM262 702q0 -244 122.5 -393t309.5 -149 q54 0 103 12l-135 256l141 80l139 -262q87 71 135.5 188t48.5 268q0 246 -122.5 395.5t-309.5 149.5t-309.5 -149.5t-122.5 -395.5z" />
<glyph unicode="R" horiz-adv-x="1099" d="M156 0v1411h479q79 0 143 -25t106 -67t70.5 -99.5t41 -119.5t12.5 -131q0 -80 -17 -150.5t-52.5 -131t-96 -101.5t-140.5 -54l320 -532h-213l-309 528h-160v-528h-184zM340 707h264q61 0 105.5 22t69 60.5t35.5 83t11 96.5q0 51 -11 96.5t-34.5 84.5t-66.5 62t-101 23 h-272v-528z" />
<glyph unicode="S" horiz-adv-x="1011" d="M84 406h178q2 -102 64 -176t180 -74q119 0 184.5 60.5t73.5 148.5v15q0 180 -213 236l-156 46q-301 90 -301 362q0 179 110.5 291t289.5 112q172 0 284.5 -113t112.5 -300h-178q0 104 -62.5 169.5t-156.5 65.5q-107 0 -164.5 -62.5t-57.5 -162.5q0 -141 174 -193l154 -43 q343 -89 342 -409v-29q-7 -74 -37.5 -139.5t-83 -117.5t-134 -82.5t-181.5 -30.5t-181.5 36.5t-133 97.5t-79 136t-28.5 156z" />
<glyph unicode="T" horiz-adv-x="993" d="M41 1235v176h911v-176h-364v-1235h-182v1235h-365z" />
<glyph unicode="U" horiz-adv-x="1183" d="M143 451v960h183v-960q0 -139 76.5 -213t189.5 -74t189.5 74t76.5 213v960h182v-960q0 -112 -35.5 -202.5t-97 -148.5t-142.5 -89t-173 -31q-123 0 -223.5 52.5t-163 161.5t-62.5 257z" />
<glyph unicode="V" horiz-adv-x="980" d="M41 1411h188l263 -1079l260 1079h188l-360 -1411h-177z" />
<glyph unicode="W" horiz-adv-x="1568" d="M16 1411h195l291 -1067l211 877h143l211 -877l291 1067h194l-405 -1411h-162l-203 840l-198 -840h-162z" />
<glyph unicode="X" d="M10 0l418 758l-373 653h213l267 -491l268 491h211l-373 -653l418 -758h-211l-313 596l-314 -596h-211z" />
<glyph unicode="Y" horiz-adv-x="1093" d="M0 1411h211l336 -580l340 580h211l-459 -762h2v-649h-188v649z" />
<glyph unicode="Z" horiz-adv-x="995" d="M63 0v162l633 1083h-608v166h834v-162l-646 -1083h646v-166h-859z" />
<glyph unicode="[" horiz-adv-x="569" d="M139 -465v1876h371v-145h-201v-1585h201v-146h-371z" />
<glyph unicode="\" horiz-adv-x="937" d="M47 1520h154l688 -1577h-154z" />
<glyph unicode="]" horiz-adv-x="569" d="M59 -319h201v1585h-201v145h371v-1876h-371v146z" />
<glyph unicode="_" horiz-adv-x="1216" d="M111 -57h995v-140h-995v140z" />
<glyph unicode="`" horiz-adv-x="890" d="M223 1430h211l160 -316h-152z" />
<glyph unicode="a" d="M70 479q0 225 115 361.5t290 136.5q42 0 83 -9t82 -28t75 -54t53 -83v153h178v-956h-178v156q-45 -89 -123.5 -132.5t-169.5 -43.5q-175 0 -290 137.5t-115 361.5zM250 481q0 -139 75 -230t181 -91q109 0 185.5 87t76.5 234q0 145 -79.5 230.5t-182.5 85.5 q-107 0 -181.5 -88.5t-74.5 -227.5z" />
<glyph unicode="b" d="M123 0v1477h178v-674q40 84 123 129t172 45q176 0 288.5 -136t112.5 -362q0 -224 -114 -361.5t-289 -137.5q-94 0 -180.5 45t-112.5 131v-156h-178zM301 481q0 -147 76.5 -234t185.5 -87q106 0 180 91t74 230q0 140 -73.5 228t-180.5 88q-103 0 -182.5 -85.5 t-79.5 -230.5z" />
<glyph unicode="c" horiz-adv-x="884" d="M70 481q0 221 128 358.5t312 137.5q98 0 181 -40t140 -114l-126 -127q-89 103 -195 103q-108 0 -184 -88.5t-76 -229.5t76.5 -233t183.5 -92q110 0 195 106l129 -127q-57 -74 -141.5 -114.5t-182.5 -40.5q-89 0 -169 36t-140 100.5t-95.5 159t-35.5 205.5z" />
<glyph unicode="d" d="M72 479q0 226 112.5 362t288.5 136q89 0 172 -45t123 -129v674h178v-1477h-178v156q-26 -86 -112.5 -131t-180.5 -45q-175 0 -289 137.5t-114 361.5zM252 481q0 -139 74 -230t180 -91q109 0 185.5 87t76.5 234q0 145 -79.5 230.5t-182.5 85.5q-107 0 -180.5 -88 t-73.5 -228z" />
<glyph unicode="e" horiz-adv-x="1003" d="M70 481q0 223 126 359.5t316 136.5q189 0 310.5 -136t121.5 -360q0 -53 -2 -73h-680q17 -116 86.5 -183t169.5 -67q73 0 137 36.5t99 106.5l159 -70q-54 -121 -162 -186t-239 -65q-189 0 -315.5 139t-126.5 362zM262 543h498q-18 127 -84 191.5t-164 64.5 q-99 0 -164.5 -65t-85.5 -191z" />
<glyph unicode="f" horiz-adv-x="587" d="M35 811v145h155v97q0 199 77.5 311.5t242.5 112.5h98v-164h-63q-48 0 -82.5 -16t-52.5 -39t-28 -61t-12 -69q-1 -21 -1 -47v-28v-97h186v-145h-186v-811h-179v811h-155z" />
<glyph unicode="g" d="M70 475q0 225 115 363.5t290 138.5q56 0 110.5 -16t105.5 -55t77 -95v145h178v-811q0 -622 -457 -622q-120 0 -220 66.5t-158 189.5l153 78q37 -77 95.5 -119.5t127.5 -42.5q140 0 210.5 111.5t70.5 349.5q-36 -87 -117 -131.5t-176 -44.5q-175 0 -290 136t-115 359z M250 477q0 -143 74.5 -232t181.5 -89q102 0 182 88.5t80 232.5q0 148 -76.5 236t-185.5 88q-106 0 -181 -93t-75 -231z" />
<glyph unicode="h" horiz-adv-x="1013" d="M123 0v1477h178v-666q23 48 55.5 82t68.5 52t70 26t68 8q158 0 248.5 -112t89.5 -312v-555h-178v543q0 117 -55.5 186.5t-143.5 69.5q-105 0 -164 -76.5t-59 -226.5v-496h-178z" />
<glyph unicode="i" horiz-adv-x="423" d="M90 1307q0 52 35.5 86t85.5 34q51 0 85 -34t34 -86t-34 -86.5t-85 -34.5q-50 0 -85.5 34.5t-35.5 86.5zM123 0v956h178v-956h-178z" />
<glyph unicode="j" horiz-adv-x="423" d="M-121 -295h107q35 0 61 15t40.5 37t22.5 55.5t10.5 63t2.5 67.5v1013h178v-1015q0 -406 -303 -406h-119v170zM90 1307q0 52 35.5 86t85.5 34t84.5 -34t34.5 -86t-34.5 -86.5t-84.5 -34.5t-85.5 34.5t-35.5 86.5z" />
<glyph unicode="k" horiz-adv-x="864" d="M123 0v1477h178v-834l264 313h221l-350 -413l434 -543h-215l-354 446v-446h-178z" />
<glyph unicode="l" horiz-adv-x="423" d="M123 0v1477h178v-1477h-178z" />
<glyph unicode="m" horiz-adv-x="1533" d="M123 0v956h178v-145q30 84 95 125t136 41q204 0 277 -182q24 56 61.5 94.5t80 56t77 24.5t70.5 7q157 0 240 -110.5t83 -313.5v-553h-178v551q0 116 -51.5 180t-136.5 64q-86 0 -139.5 -66.5t-53.5 -183.5v-545h-178v557q0 117 -50.5 177.5t-141.5 60.5q-84 0 -137.5 -68 t-53.5 -184v-543h-178z" />
<glyph unicode="n" horiz-adv-x="999" d="M123 0v956h178v-145q21 58 65 96.5t93.5 54t103.5 15.5q156 0 240 -111t84 -313v-553h-178v504q0 152 -50 221.5t-153 69.5q-89 0 -147 -66t-58 -197v-532h-178z" />
<glyph unicode="o" horiz-adv-x="1011" d="M70 481q0 147 59.5 261.5t158.5 174.5t218 60t218 -60t158.5 -174.5t59.5 -261.5q0 -222 -126.5 -361.5t-309.5 -139.5t-309.5 139.5t-126.5 361.5zM248 481q0 -143 75 -233t183 -90q107 0 182.5 90t75.5 233q0 141 -75.5 229.5t-182.5 88.5q-109 0 -183.5 -88.5 t-74.5 -229.5z" />
<glyph unicode="p" horiz-adv-x="1060" d="M123 -465v1421h178v-145q37 83 119 124.5t170 41.5q174 0 287.5 -139t113.5 -363t-113 -359.5t-288 -135.5q-93 0 -172 41t-117 135v-621h-178zM301 473q0 -145 77.5 -230t180.5 -85q107 0 179.5 87.5t72.5 227.5q0 141 -73 233.5t-179 92.5q-107 0 -182.5 -89.5 t-75.5 -236.5z" />
<glyph unicode="q" horiz-adv-x="1060" d="M70 475q0 224 113.5 363t287.5 139q88 0 170 -41.5t119 -124.5v145h178v-1421h-178v621q-38 -94 -117 -135t-172 -41q-175 0 -288 135.5t-113 359.5zM250 473q0 -140 72.5 -227.5t179.5 -87.5q103 0 180.5 85t77.5 230q0 147 -75.5 236.5t-182.5 89.5q-106 0 -179 -92.5 t-73 -233.5z" />
<glyph unicode="r" horiz-adv-x="684" d="M123 0v956h178v-213q23 106 83.5 170t131.5 64q43 0 87.5 -12t64.5 -27l-27 -176q-63 37 -127 37q-213 0 -213 -404v-395h-178z" />
<glyph unicode="s" horiz-adv-x="765" d="M63 283l179 -2q3 -63 40.5 -100.5t94.5 -37.5q68 0 110.5 35t42.5 90q0 35 -22 66t-70 45l-129 39q-80 25 -121.5 56t-76.5 101q-19 41 -23 95q-1 11 -1 21q0 44 13 91q25 82 99.5 138.5t183.5 56.5q112 0 193.5 -65t95.5 -193q2 -15 2 -21h-178q-17 113 -115 113 q-47 0 -77 -22.5t-40 -55.5q-7 -21 -7 -40q0 -24 11 -44q25 -40 90 -61l123 -37q63 -18 108 -51t68 -73.5t33 -80t10 -82.5q0 -129 -94 -206.5t-229 -77.5q-122 0 -216.5 82t-97.5 221z" />
<glyph unicode="t" horiz-adv-x="567" d="M35 811v145h147v361h178v-361h172v-145h-172v-811h-178v811h-147z" />
<glyph unicode="u" horiz-adv-x="999" d="M113 403v553h178v-503q0 -156 43 -227.5t143 -71.5q102 0 161.5 68t59.5 202v532h179v-956h-179v129q-33 -73 -106.5 -111t-155.5 -38q-156 0 -239.5 110.5t-83.5 312.5z" />
<glyph unicode="v" horiz-adv-x="890" d="M20 956h197l229 -727l224 727h200l-338 -956h-174z" />
<glyph unicode="w" horiz-adv-x="1380" d="M25 956h194l189 -659l188 659h182l191 -657l188 657h195l-301 -956h-152l-211 700l-205 -700h-149z" />
<glyph unicode="x" horiz-adv-x="884" d="M10 0l322 524l-264 432h215l157 -305l162 305h215l-266 -432l321 -524h-213l-219 399l-219 -399h-211z" />
<glyph unicode="y" horiz-adv-x="888" d="M23 956h190l233 -677l234 677h188l-503 -1421h-187l170 494z" />
<glyph unicode="z" horiz-adv-x="874" d="M63 0v152l498 636h-471v168h709v-151l-508 -637h508v-168h-736z" />
<glyph unicode="{" horiz-adv-x="663" d="M57 412v137q41 0 74 38.5t33 80.5v360q0 194 89.5 296.5t262.5 102.5h92v-141h-98q-90 0 -134 -74t-44 -184v-360q0 -60 -29.5 -112.5t-91.5 -76.5q62 -21 91.5 -74t29.5 -112v-356q0 -111 44 -186t134 -75h98v-141h-92q-173 0 -262.5 103t-89.5 299v356q0 42 -33 80.5 t-74 38.5z" />
<glyph unicode="|" horiz-adv-x="391" d="M139 -244v1872h113v-1872h-113z" />
<glyph unicode="}" horiz-adv-x="663" d="M55 -324h99q90 0 134 75t44 186v356q0 59 29.5 112t91.5 74q-62 24 -91.5 76.5t-29.5 112.5v360q0 110 -44 184t-134 74h-99v141h92q173 0 263 -102.5t90 -296.5v-360q0 -42 32.5 -80.5t73.5 -38.5v-137q-41 0 -73.5 -38.5t-32.5 -80.5v-356q0 -196 -90 -299t-263 -103 h-92v141z" />
<glyph unicode="&#xad;" horiz-adv-x="849" d="M113 401v166h624v-166h-624z" />
<glyph unicode="&#x2000;" horiz-adv-x="814" />
<glyph unicode="&#x2001;" horiz-adv-x="1628" />
<glyph unicode="&#x2002;" horiz-adv-x="814" />
<glyph unicode="&#x2003;" horiz-adv-x="1628" />
<glyph unicode="&#x2004;" horiz-adv-x="542" />
<glyph unicode="&#x2005;" horiz-adv-x="407" />
<glyph unicode="&#x2006;" horiz-adv-x="271" />
<glyph unicode="&#x2007;" horiz-adv-x="271" />
<glyph unicode="&#x2008;" horiz-adv-x="203" />
<glyph unicode="&#x2009;" horiz-adv-x="325" />
<glyph unicode="&#x200a;" horiz-adv-x="90" />
<glyph unicode="&#x2010;" horiz-adv-x="849" d="M113 401v166h624v-166h-624z" />
<glyph unicode="&#x2011;" horiz-adv-x="849" d="M113 401v166h624v-166h-624z" />
<glyph unicode="&#x2012;" horiz-adv-x="849" d="M113 401v166h624v-166h-624z" />
<glyph unicode="&#x2013;" horiz-adv-x="1249" d="M113 401v166h1024v-166h-1024z" />
<glyph unicode="&#x2014;" horiz-adv-x="2273" d="M113 401v166h2048v-166h-2048z" />
<glyph unicode="&#x202f;" horiz-adv-x="325" />
<glyph unicode="&#x205f;" horiz-adv-x="407" />
<glyph unicode="&#x25fc;" horiz-adv-x="955" d="M0 0v955h955v-955h-955z" />
</font>
</defs>
</svg>
